<svg id="Logo_representation" data-name="Logo representation" xmlns="http://www.w3.org/2000/svg" width="62.741" height="48.196" viewBox="0 0 62.741 48.196">
  <path id="Icon_awesome-leaf" data-name="Icon awesome-leaf" d="M59.5.914A1.815,1.815,0,0,0,56.416.8,19.348,19.348,0,0,1,40.086,9.036H31.371c-11.547,0-20.916,8.094-20.916,18.071a16.126,16.126,0,0,0,.163,1.929c6.95-4.3,16.983-7.953,31.21-7.953a1.642,1.642,0,0,1,1.743,1.506A1.642,1.642,0,0,1,41.829,24.1c-27.386,0-39,14.5-41.57,19.953a2.887,2.887,0,0,0,1.906,3.915,3.705,3.705,0,0,0,4.554-1.628,25.431,25.431,0,0,1,7.832-8.527A22.284,22.284,0,0,0,33.6,45.074c17.1-1.073,29.14-14.325,29.14-30.551A30.288,30.288,0,0,0,59.5.914Z" transform="translate(-0.004 0.002)" fill="#58d53b"/>
</svg>
